#!OML:ASF H:\Punching\Project 1\Capture day 1\Session 1\female.ASF
:FULLY-SPECIFIED
:DEGREES
142
root -0.189013 14.9009 -1.8095 8.3276 -0.0376904 -0.493931
lowerback 3.0973 -1.0066 0.0550544
upperback -5.97787 -1.36853 -0.233607
thorax -8.00216 -0.685915 -0.139227
lowerneck -14.6859 0.939826 6.67026
upperneck 39.7338 0.503152 -3.37416
head 16.9321 0.732017 -2.63247
rclavicle -2.08724e-015 -3.97569e-015
rhumerus 32.6583 10.779 -61.6367
rradius 65.2257
rwrist -0.122018
rhand 32.4218 -36.6592
rfingers 7.12502
rthumb 55.87 -54.1493
lclavicle -2.08724e-015 -3.97569e-015
lhumerus 27.7323 -9.33509 56.6743
lradius 79.7931
lwrist -8.89344
lhand 36.7309 26.8443
lfingers 7.12502
lthumb 59.6345 41.0027
rfemur -27.378 -6.72405 16.9422
rtibia 51.1326
rfoot -28.5055 -8.23113
rtoes -13.1547
lfemur -28.3993 1.24633 -16.5976
ltibia 50.8299
lfoot -25.4396 8.82705
ltoes -13.4971
143
root -0.186798 14.8998 -1.81209 8.31621 -0.0552562 -0.513072
lowerback 3.10995 -0.995255 0.0837852
upperback -5.97629 -1.35186 -0.242494
thorax -8.00873 -0.679777 -0.166074
lowerneck -14.6261 0.959709 6.72686
upperneck 39.6359 0.537486 -3.41554
head 16.8663 0.746859 -2.65129
rclavicle -2.16178e-015 5.1684e-015
rhumerus 32.6281 10.7891 -61.625
rradius 65.2737
rwrist -0.0797286
rhand 32.3169 -36.6921
rfingers 7.12502
rthumb 55.777 -54.2534
lclavicle -2.16178e-015 5.1684e-015
lhumerus 27.7302 -9.36827 56.6575
lradius 79.8108
lwrist -8.85108
lhand 36.7346 26.8661
lfingers 7.12502
lthumb 59.6376 41.0212
rfemur -27.3826 -6.69005 16.9518
rtibia 51.1325
rfoot -28.4915 -8.25044
rtoes -13.2371
lfemur -28.4103 1.2665 -16.5871
ltibia 50.8531
lfoot -25.4451 8.81955
ltoes -13.4433
144
root -0.184567 14.9003 -1.81379 8.2971 -0.056628 -0.550326
lowerback 3.11912 -0.990812 0.120656
upperback -5.96229 -1.34241 -0.231411
thorax -7.99949 -0.676979 -0.175997
lowerneck -14.6005 0.982321 6.76232
upperneck 39.5595 0.579381 -3.4546
head 16.8216 0.762437 -2.66494
rclavicle 2.13818e-014 1.51076e-014
rhumerus 32.6278 10.807 -61.5854
rradius 65.3038
rwrist -0.0411562
rhand 32.2573 -36.6379
rfingers 7.12502
rthumb 55.7241 -54.2396
lclavicle 2.13818e-014 1.51076e-014
lhumerus 27.7117 -9.36679 56.6742
lradius 79.806
lwrist -8.85183
lhand 36.7344 26.8197
lfingers 7.12502
lthumb 59.6375 40.975
rfemur -27.3617 -6.66193 16.9804
rtibia 51.123
rfoot -28.4804 -8.27033
rtoes -13.258
lfemur -28.4085 1.28791 -16.5573
ltibia 50.8745
lfoot -25.4503 8.83125
ltoes -13.5076
145
root -0.181658 14.8999 -1.81557 8.27319 -0.0659261 -0.541474
lowerback 3.14306 -0.989221 0.118149
upperback -5.95094 -1.34132 -0.244236
thorax -8.00151 -0.676705 -0.187838
lowerneck -14.5652 0.998055 6.8166
upperneck 39.4685 0.605358 -3.49564
head 16.7657 0.773535 -2.68514
rclavicle -1.67725e-015 -1.78906e-015
rhumerus 32.6195 10.8164 -61.602
rradius 65.3277
rwrist 0.0121145
rhand 32.2084 -36.5934
rfingers 7.12502
rthumb 55.6807 -54.2279
lclavicle -1.67725e-015 -1.78906e-015
lhumerus 27.6948 -9.37339 56.6575
lradius 79.8317
lwrist -8.83649
lhand 36.6899 26.8798
lfingers 7.12502
lthumb 59.5993 41.074
rfemur -27.3382 -6.66011 16.9525
rtibia 51.117
rfoot -28.4844 -8.24376
rtoes -13.2582
lfemur -28.3891 1.29747 -16.5796
ltibia 50.8811
lfoot -25.4549 8.82682
ltoes -13.47
146
root -0.179262 14.8997 -1.8176 8.26334 -0.0733833 -0.53827
lowerback 3.15808 -0.992513 0.111478
upperback -5.95015 -1.34596 -0.240071
thorax -8.00923 -0.678408 -0.17899
lowerneck -14.5264 1.03211 6.85324
upperneck 39.3863 0.667473 -3.53978
head 16.7166 0.796795 -2.69736
rclavicle -6.84565e-015 5.56597e-015
rhumerus 32.6145 10.8484 -61.5985
rradius 65.3544
rwrist 0.0431743
rhand 32.1907 -36.5602
rfingers 7.12502
rthumb 55.6649 -54.2068
lclavicle -6.84565e-015 5.56597e-015
lhumerus 27.6558 -9.36109 56.6566
lradius 79.832
lwrist -8.84721
lhand 36.6822 26.8436
lfingers 7.12502
lthumb 59.5927 41.0445
rfemur -27.3301 -6.64537 16.9333
rtibia 51.108
rfoot -28.4872 -8.23621
rtoes -13.2617
lfemur -28.3905 1.31635 -16.5977
ltibia 50.8874
lfoot -25.4475 8.83118
ltoes -13.4747
147
root -0.17602 14.9001 -1.81831 8.23618 -0.0801458 -0.52929
lowerback 3.15888 -0.984734 0.122261
upperback -5.93016 -1.33588 -0.258268
thorax -7.98873 -0.67475 -0.205341
lowerneck -14.4942 1.04659 6.8948
upperneck 39.2944 0.685971 -3.55682
head 16.6608 0.806343 -2.70571
rclavicle 2.28602e-015 -1.78906e-015
rhumerus 32.6106 10.8327 -61.6094
rradius 65.376
rwrist 0.0699356
rhand 32.2467 -36.5944
rfingers 7.12502
rthumb 55.7146 -54.2032
lclavicle 2.28602e-015 -1.78906e-015
lhumerus 27.6417 -9.38038 56.6422
lradius 79.8626
lwrist -8.84852
lhand 36.6701 26.8344
lfingers 7.12502
lthumb 59.5823 41.0458
rfemur -27.3024 -6.6493 16.9088
rtibia 51.1053
rfoot -28.4707 -8.25344
rtoes -13.3587
lfemur -28.3564 1.30511 -16.6216
ltibia 50.8847
lfoot -25.454 8.83799
ltoes -13.4423
148
root -0.173158 14.8994 -1.82143 8.23901 -0.0960127 -0.545003
lowerback 3.15407 -0.974832 0.148804
upperback -5.91811 -1.32095 -0.263212
thorax -7.97354 -0.669205 -0.227101
lowerneck -14.4728 1.06362 6.93256
upperneck 39.1954 0.712915 -3.58398
head 16.6047 0.817203 -2.71628
rclavicle -9.14409e-015 -6.36111e-015
rhumerus 32.6232 10.8132 -61.6197
rradius 65.3858
rwrist 0.0962209
rhand 32.3014 -36.5988
rfingers 7.12502
rthumb 55.7632 -54.1706
lclavicle -9.14409e-015 -6.36111e-015
lhumerus 27.6697 -9.38158 56.6424
lradius 79.8591
lwrist -8.88554
lhand 36.6252 26.7994
lfingers 7.12502
lthumb 59.5437 41.0499
rfemur -27.3225 -6.62537 16.9132
rtibia 51.0986
rfoot -28.4572 -8.23599
rtoes -13.321
lfemur -28.3789 1.32796 -16.6235
ltibia 50.8875
lfoot -25.4449 8.8805
ltoes -13.4843
149
root -0.169542 14.8995 -1.82328 8.22843 -0.102052 -0.54878
lowerback 3.16456 -0.967975 0.170338
upperback -5.91271 -1.31081 -0.272462
thorax -7.97451 -0.66584 -0.249743
lowerneck -14.4393 1.08141 6.98489
upperneck 39.0985 0.741131 -3.62104
head 16.5472 0.829506 -2.73364
rclavicle 8.65956e-015 -4.37326e-015
rhumerus 32.5898 10.8258 -61.5866
rradius 65.4399
rwrist 0.0574674
rhand 32.2294 -36.636
rfingers 7.12502
rthumb 55.6994 -54.2564
lclavicle 8.65956e-015 -4.37326e-015
lhumerus 27.6436 -9.39439 56.6417
lradius 79.8678
lwrist -8.94027
lhand 36.6685 26.7613
lfingers 7.12502
lthumb 59.5808 40.9742
rfemur -27.319 -6.6387 16.9027
rtibia 51.0875
rfoot -28.4423 -8.22721
rtoes -13.3464
lfemur -28.3701 1.31711 -16.6381
ltibia 50.8843
lfoot -25.4507 8.91557
ltoes -13.4814
150
root -0.165939 14.9003 -1.82438 8.21985 -0.0935289 -0.554944
lowerback 3.16336 -0.9693 0.195791
upperback -5.90688 -1.31098 -0.275825
thorax -7.96821 -0.667589 -0.267581
lowerneck -14.3919 1.10175 7.01209
upperneck 38.9949 0.774488 -3.63771
head 16.483 0.842887 -2.73609
rclavicle -1.18898e-014 -3.57812e-015
rhumerus 32.5606 10.8343 -61.5776
rradius 65.5011
rwrist 0.0527058
rhand 32.2167 -36.6062
rfingers 7.12502
rthumb 55.688 -54.2352
lclavicle -1.18898e-014 -3.57812e-015
lhumerus 27.6253 -9.39162 56.6617
lradius 79.8711
lwrist -8.97637
lhand 36.6015 26.7563
lfingers 7.12502
lthumb 59.5233 41.0275
rfemur -27.3008 -6.63993 16.8896
rtibia 51.0759
rfoot -28.4304 -8.20903
rtoes -13.3348
lfemur -28.3618 1.29817 -16.6486
ltibia 50.8828
lfoot -25.4558 8.92753
ltoes -13.3651
151
root -0.163115 14.9003 -1.82656 8.22398 -0.110308 -0.56966
lowerback 3.16585 -0.960243 0.212856
upperback -5.91455 -1.29764 -0.276141
thorax -7.97826 -0.662089 -0.27868
lowerneck -14.2995 1.12405 7.04393
upperneck 38.8695 0.809617 -3.64568
head 16.3966 0.858598 -2.73409
rclavicle -1.02498e-014 3.97569e-015
rhumerus 32.5262 10.8126 -61.6563
rradius 65.4692
rwrist 0.126219
rhand 32.2136 -36.5193
rfingers 7.12502
rthumb 55.6853 -54.1504
lclavicle -1.02498e-014 3.97569e-015
lhumerus 27.5873 -9.40442 56.6621
lradius 79.8779
lwrist -8.96181
lhand 36.6125 26.722
lfingers 7.12502
lthumb 59.5327 40.9836
rfemur -27.3138 -6.61248 16.895
rtibia 51.0629
rfoot -28.4121 -8.22235
rtoes -13.3388
lfemur -28.3701 1.32183 -16.6538
ltibia 50.8741
lfoot -25.4701 8.98536
ltoes -13.4147
152
root -0.159652 14.8999 -1.82964 8.22339 -0.104843 -0.550799
lowerback 3.16396 -0.951532 0.209915
upperback -5.90421 -1.2869 -0.288085
thorax -7.96609 -0.657027 -0.290792
lowerneck -14.2793 1.1383 7.08189
upperneck 38.764 0.833925 -3.67711
head 16.3382 0.867805 -2.74681
rclavicle 1.16786e-015 8.34896e-015
rhumerus 32.5257 10.8105 -61.5911
rradius 65.5023
rwrist 0.0861691
rhand 32.1435 -36.5623
rfingers 7.12502
rthumb 55.623 -54.2406
lclavicle 1.16786e-015 8.34896e-015
lhumerus 27.601 -9.41075 56.7027
lradius 79.8777
lwrist -9.00192
lhand 36.6588 26.7192
lfingers 7.12502
lthumb 59.5725 40.9406
rfemur -27.3248 -6.61584 16.8597
rtibia 51.052
rfoot -28.3901 -8.22356
rtoes -13.3629
lfemur -28.3818 1.28406 -16.6889
ltibia 50.8636
lfoot -25.4445 9.01385
ltoes -13.3677
153
root -0.155276 14.9004 -1.83094 8.20296 -0.101885 -0.55079
lowerback 3.16225 -0.939237 0.250124
upperback -5.88969 -1.26847 -0.303349
thorax -7.95054 -0.650917 -0.331343
lowerneck -14.2447 1.14909 7.10404
upperneck 38.6655 0.850572 -3.68657
head 16.2794 0.874764 -2.74837
rclavicle -2.49723e-015 8.94531e-015
rhumerus 32.5047 10.7808 -61.5886
rradius 65.5134
rwrist 0.10546
rhand 32.1998 -36.5141
rfingers 7.12502
rthumb 55.673 -54.1544
lclavicle -2.49723e-015 8.94531e-015
lhumerus 27.6122 -9.43834 56.7274
lradius 79.8795
lwrist -8.99122
lhand 36.6182 26.7523
lfingers 7.12502
lthumb 59.5377 41.009
rfemur -27.2999 -6.63512 16.8353
rtibia 51.0396
rfoot -28.4044 -8.18704
rtoes -13.3621
lfemur -28.3537 1.25691 -16.7134
ltibia 50.8488
lfoot -25.4558 9.08913
ltoes -13.4591
